<?xml version="1.0" encoding="UTF-8" standalone="no"?>
<!DOCTYPE svg PUBLIC "-//W3C//DTD SVG 1.1//EN" "http://www.w3.org/Graphics/SVG/1.1/DTD/svg11.dtd">
<svg width="100%" height="100%" viewBox="0 0 16 16" version="1.1" xmlns="http://www.w3.org/2000/svg" xmlns:xlink="http://www.w3.org/1999/xlink" xml:space="preserve" xmlns:serif="http://www.serif.com/" style="fill-rule:evenodd;clip-rule:evenodd;stroke-linejoin:round;stroke-miterlimit:2;">
    <g id="Cloveleaf" transform="matrix(1,0,0,1,0.401124,0.402514)">
        <g id="blue-back" serif:id="blue back">
            <path id="path868" d="M2.381,3.299C2.115,3.298 1.846,3.338 1.578,3.43C-1.078,4.348 0.144,7.332 1.479,7.598C0.05,7.989 -0.965,10.898 1.66,11.771C2.088,11.914 2.513,11.938 2.926,11.875L2.945,11.822C3.38,10.702 4.512,9.627 5.531,8.797C6.04,8.382 6.525,8.031 6.881,7.783C6.996,7.703 7.073,7.653 7.154,7.598C7.183,7.579 7.228,7.548 7.254,7.531C7.189,7.433 7.111,7.314 7.004,7.16C6.762,6.812 6.418,6.34 6.014,5.844C5.271,4.932 4.307,3.948 3.426,3.512L3.424,3.51C3.084,3.378 2.734,3.302 2.381,3.299L2.381,3.299Z" style="fill:rgb(95,152,211);fill-rule:nonzero;"/>
        </g>
        <g id="blues">
            <path id="path2" d="M1.478,7.597C0.049,7.988 -0.965,10.899 1.66,11.772C2.088,11.915 2.512,11.938 2.925,11.875L2.946,11.823C3.381,10.703 4.513,9.626 5.532,8.796C6.041,8.381 6.524,8.032 6.88,7.784C6.995,7.704 7.074,7.652 7.155,7.597L1.478,7.597Z" style="fill:rgb(95,152,211);fill-rule:nonzero;"/>
            <path id="path4" d="M2.381,3.298C2.115,3.297 1.847,3.337 1.579,3.429C-1.077,4.347 0.143,7.331 1.478,7.597L7.155,7.597C7.184,7.578 7.227,7.548 7.253,7.531C7.188,7.433 7.11,7.315 7.003,7.161C6.761,6.813 6.418,6.339 6.014,5.843C5.271,4.931 4.306,3.947 3.425,3.511C3.424,3.511 3.424,3.511 3.423,3.51C3.083,3.378 2.734,3.301 2.381,3.298Z" style="fill:rgb(135,178,222);fill-rule:nonzero;"/>
        </g>
        <g id="green-back" serif:id="green back">
            <path id="path875" d="M7.533,7.943C7.436,8.008 7.318,8.088 7.164,8.195C6.815,8.437 6.342,8.782 5.846,9.186C4.938,9.925 3.96,10.882 3.52,11.76C3.284,12.36 3.218,12.989 3.432,13.619C4.351,16.276 7.326,15.047 7.592,13.713C7.983,15.142 10.893,16.156 11.766,13.531C11.909,13.104 11.933,12.682 11.871,12.27L11.826,12.254C10.705,11.819 9.629,10.683 8.799,9.664C8.385,9.154 8.036,8.672 7.789,8.316C7.705,8.195 7.649,8.111 7.592,8.027C7.572,7.999 7.55,7.969 7.533,7.943L7.533,7.943Z" style="fill:rgb(141,211,95);fill-rule:nonzero;"/>
        </g>
        <g id="greens">
            <path id="path8" d="M7.534,7.944C7.437,8.009 7.319,8.089 7.165,8.196C6.816,8.438 6.342,8.781 5.846,9.185C4.938,9.924 3.96,10.882 3.52,11.76C3.284,12.36 3.218,12.989 3.432,13.619C4.351,16.276 7.326,15.047 7.592,13.713L7.592,8.028C7.572,8 7.551,7.97 7.534,7.944Z" style="fill:rgb(170,222,135);fill-rule:nonzero;"/>
            <path id="path10" d="M7.592,8.028L7.592,13.713C7.983,15.142 10.893,16.156 11.766,13.531C11.909,13.104 11.933,12.682 11.871,12.27L11.827,12.253C10.706,11.818 9.629,10.684 8.799,9.665C8.385,9.155 8.037,8.673 7.79,8.317C7.706,8.196 7.649,8.112 7.592,8.028Z" style="fill:rgb(141,211,95);fill-rule:nonzero;"/>
        </g>
        <g id="yellow-back" serif:id="yellow back">
            <path id="path887" d="M12.707,3.285C12.562,3.283 12.419,3.295 12.277,3.316L12.258,3.369C11.823,4.49 10.691,5.567 9.672,6.396C9.162,6.811 8.676,7.161 8.32,7.408C8.204,7.489 8.126,7.543 8.045,7.598C8.015,7.618 7.973,7.646 7.947,7.664C8.013,7.761 8.092,7.878 8.199,8.031C8.441,8.38 8.784,8.856 9.188,9.352C9.931,10.265 10.895,11.248 11.777,11.684C12.373,11.916 12.997,11.979 13.621,11.766C16.278,10.847 15.051,7.864 13.717,7.598C15.146,7.207 16.148,4.297 13.523,3.424C13.248,3.332 12.976,3.288 12.707,3.285L12.707,3.285Z" style="fill:rgb(242,229,64);fill-rule:nonzero;"/>
        </g>
        <g id="yellows">
            <path id="path14" d="M8.045,7.598C8.015,7.618 7.974,7.646 7.948,7.664C8.014,7.761 8.093,7.879 8.2,8.032C8.442,8.381 8.784,8.855 9.188,9.351C9.931,10.264 10.896,11.247 11.778,11.683C12.374,11.915 12.997,11.978 13.621,11.765C16.278,10.846 15.05,7.863 13.716,7.597L8.045,7.598Z" style="fill:rgb(247,240,144);fill-rule:nonzero;"/>
            <path id="path16" d="M12.707,3.285C12.562,3.283 12.419,3.296 12.277,3.317L12.257,3.37C11.822,4.491 10.69,5.568 9.671,6.397C9.161,6.812 8.677,7.162 8.321,7.409C8.205,7.49 8.126,7.543 8.045,7.598L13.716,7.597C15.145,7.206 16.149,4.296 13.524,3.423C13.249,3.331 12.976,3.288 12.707,3.285Z" style="fill:rgb(242,229,64);fill-rule:nonzero;"/>
        </g>
        <g id="red-back" serif:id="red back">
            <path id="path20" d="M9.686,0.006C8.697,0.054 7.738,0.751 7.592,1.48C7.372,0.676 6.355,0.005 5.352,0.037C4.572,0.062 3.8,0.513 3.418,1.662C3.276,2.086 3.253,2.507 3.313,2.916L3.375,2.939C4.496,3.374 5.57,4.508 6.4,5.527C6.815,6.037 7.165,6.521 7.412,6.877C7.489,6.987 7.539,7.076 7.592,7.154C7.612,7.184 7.641,7.227 7.658,7.254C7.755,7.188 7.873,7.107 8.027,7C8.376,6.758 8.85,6.416 9.346,6.012C9.842,5.608 10.36,5.138 10.799,4.652C11.019,4.409 11.219,4.162 11.387,3.916C11.49,3.766 11.553,3.62 11.629,3.473C11.878,2.86 11.98,2.221 11.76,1.576C11.416,0.58 10.78,0.13 10.107,0.027C9.967,0.006 9.827,-0.001 9.686,0.006Z" style="fill:rgb(211,114,95);fill-rule:nonzero;"/>
        </g>
        <g id="reds">
            <path id="path839" d="M10.108,0.027C8.986,-0.145 7.759,0.647 7.592,1.481L7.592,7.154C7.612,7.184 7.642,7.226 7.659,7.253C7.756,7.187 7.873,7.107 8.027,7C8.376,6.758 8.85,6.416 9.346,6.012C9.842,5.608 10.359,5.138 10.798,4.652C11.018,4.409 11.218,4.162 11.386,3.916C11.489,3.766 11.553,3.62 11.629,3.473C11.878,2.86 11.98,2.221 11.76,1.576C11.416,0.58 10.781,0.13 10.108,0.027Z" style="fill:rgb(222,149,135);fill-rule:nonzero;"/>
            <path id="path841" d="M5.352,0.037C4.572,0.062 3.8,0.514 3.418,1.663C3.276,2.087 3.252,2.507 3.312,2.916L3.375,2.94C4.496,3.375 5.571,4.509 6.401,5.528C6.816,6.038 7.166,6.52 7.413,6.876C7.49,6.986 7.539,7.076 7.592,7.154L7.592,1.481C7.372,0.677 6.355,0.005 5.352,0.037Z" style="fill:rgb(211,114,95);fill-rule:nonzero;"/>
        </g>
    </g>
</svg>
